<svg width="512" height="512" viewBox="0 0 512 512" fill="none" xmlns="http://www.w3.org/2000/svg">
<path d="M424 311.822H405.333L461.333 255.772L405.333 199.721H424L480 255.772L424 311.822Z" fill="white"/>
<path d="M198.087 224.477C210.407 224.477 220.176 228.089 227.394 235.313C234.736 242.413 238.407 252.814 238.407 266.515V323.5H225.154V267.823C225.154 257.609 222.603 249.824 217.501 244.468C212.398 239.112 205.118 236.434 195.661 236.434C185.083 236.434 176.683 239.611 170.461 245.963C164.363 252.191 161.314 260.848 161.314 271.933V323.5H148.061V225.224H160.754V243.347C164.363 237.369 169.341 232.76 175.687 229.522C182.158 226.159 189.625 224.477 198.087 224.477Z" fill="white"/>
<path d="M324.975 224.477C334.184 224.477 342.522 226.595 349.989 230.829C357.455 234.94 363.304 240.794 367.535 248.392C371.766 255.99 373.882 264.647 373.882 274.362C373.882 284.077 371.766 292.734 367.535 300.332C363.304 307.93 357.455 313.847 349.989 318.081C342.522 322.316 334.184 324.434 324.975 324.434C316.762 324.434 309.358 322.69 302.762 319.202C296.291 315.715 291.064 310.67 287.082 304.069V323.5H274.389V184.868H287.642V243.908C291.749 237.556 296.975 232.76 303.322 229.522C309.793 226.159 317.011 224.477 324.975 224.477ZM324.042 312.663C330.886 312.663 337.109 311.106 342.709 307.992C348.309 304.754 352.664 300.208 355.775 294.353C359.011 288.499 360.629 281.835 360.629 274.362C360.629 266.889 359.011 260.225 355.775 254.371C352.664 248.516 348.309 244.032 342.709 240.919C337.109 237.68 330.886 236.061 324.042 236.061C317.073 236.061 310.789 237.68 305.189 240.919C299.713 244.032 295.358 248.516 292.122 254.371C289.011 260.225 287.455 266.889 287.455 274.362C287.455 281.835 289.011 288.499 292.122 294.353C295.358 300.208 299.713 304.754 305.189 307.992C310.789 311.106 317.073 312.663 324.042 312.663Z" fill="white"/>
<path d="M88 199.721H106.667L50.6667 255.772L106.667 311.822H88L32 255.772L88 199.721Z" fill="white"/>
</svg>
